<?xml version="1.0" standalone="no"?><!DOCTYPE svg PUBLIC "-//W3C//DTD SVG 1.1//EN" "http://www.w3.org/Graphics/SVG/1.1/DTD/svg11.dtd"><svg t="1721814142740" class="icon" viewBox="0 0 1024 1024" version="1.1" xmlns="http://www.w3.org/2000/svg" p-id="826" width="42" height="42" xmlns:xlink="http://www.w3.org/1999/xlink"><path d="M528.564706 107.891451l434.728157 196.86902a40.156863 40.156863 0 0 1 0 73.155764L528.564706 574.775216a40.156863 40.156863 0 0 1-33.129412 0L60.707137 377.906196a40.156863 40.156863 0 0 1 0-73.155765L495.435294 107.891451a40.156863 40.156863 0 0 1 33.129412 0zM946.718118 341.333333L512 144.474353 77.271843 341.333333 512 538.192314l434.718118-196.86902z" fill="#F5222D" p-id="827"></path><path d="M931.237647 356.191373a20.078431 20.078431 0 0 1 20.018196 18.572549l0.050196 1.505882v190.745098a20.078431 20.078431 0 0 1-40.096627 1.495843l-0.060236-1.505882v-190.745098a20.078431 20.078431 0 0 1 20.078432-20.078432zM773.76251 426.36549a20.078431 20.078431 0 0 1 20.018196 18.572549l0.060235 1.505883v312.711529a20.078431 20.078431 0 0 1-5.431216 13.733647l-2.058039 2.138353-2.509804 2.509804-2.951529 2.861176-3.413333 3.192471-3.834981 3.513725-4.286745 3.814902-2.29898 1.997804a475.537569 475.537569 0 0 1-57.695373 42.706824c-61.972078 39.052549-129.857255 62.574431-201.637647 62.574431s-139.665569-23.521882-201.637647-62.574431a475.537569 475.537569 0 0 1-57.695372-42.706824l-4.497569-3.945411-4.065882-3.664314-3.624157-3.353098-3.182432-3.031843-3.935372-3.895216-2.048-2.138353a20.078431 20.078431 0 0 1-5.360941-12.047059l-0.070275-1.686588v-312.721569a20.078431 20.078431 0 0 1 40.096628-1.495843l0.060235 1.505883-0.010039 304.358902 1.455686 1.395451c2.529882 2.389333 5.320784 4.949333 8.352627 7.629803l3.112157 2.740706a435.601569 435.601569 0 0 0 52.816314 39.082667c56.048941 35.307922 116.876549 56.390275 180.234039 56.390274 63.347451 0 124.185098-21.082353 180.234039-56.390274a435.601569 435.601569 0 0 0 52.806275-39.082667c4.276706-3.704471 8.101647-7.178039 11.474823-10.370509l1.435608-1.385412 0.010039-304.378981a20.078431 20.078431 0 0 1 18.572549-20.018196l1.505883-0.060235z" fill="#F5222D" p-id="828"></path></svg>